<?xml version="1.0" standalone="no"?><!DOCTYPE svg PUBLIC "-//W3C//DTD SVG 1.1//EN" "http://www.w3.org/Graphics/SVG/1.1/DTD/svg11.dtd"><svg t="1522310173498" class="icon" style="" viewBox="0 0 1024 1024" version="1.1" xmlns="http://www.w3.org/2000/svg" p-id="5271" xmlns:xlink="http://www.w3.org/1999/xlink" width="200" height="200"><defs><style type="text/css"></style></defs><path d="M56.888889 198.91491 56.888889 198.91491 56.888889 369.973979C56.888889 401.291759 82.265742 426.666667 113.581568 426.666667L284.640654 426.666667C315.958414 426.666667 341.333333 401.289813 341.333333 369.973979L341.333333 198.91491C341.333333 167.59713 315.95648 142.222222 284.640654 142.222222L113.581568 142.222222C82.263808 142.222222 56.888889 167.599076 56.888889 198.91491L56.888889 198.91491ZM0 198.91491C0 136.185537 50.839609 85.333333 113.581568 85.333333L284.640654 85.333333C347.370012 85.333333 398.222222 136.172939 398.222222 198.91491L398.222222 369.973979C398.222222 432.703351 347.382613 483.555556 284.640654 483.555556L113.581568 483.555556C50.85221 483.555556 0 432.71595 0 369.973979L0 198.91491 0 198.91491ZM56.888889 739.359354 56.888889 739.359354 56.888889 910.418423C56.888889 941.736203 82.265742 967.111111 113.581568 967.111111L284.640654 967.111111C315.958414 967.111111 341.333333 941.734258 341.333333 910.418423L341.333333 739.359354C341.333333 708.041574 315.95648 682.666667 284.640654 682.666667L113.581568 682.666667C82.263808 682.666667 56.888889 708.04352 56.888889 739.359354L56.888889 739.359354ZM0 739.359354C0 676.629982 50.839609 625.777778 113.581568 625.777778L284.640654 625.777778C347.370012 625.777778 398.222222 676.617384 398.222222 739.359354L398.222222 910.418423C398.222222 973.147796 347.382613 1024 284.640654 1024L113.581568 1024C50.85221 1024 0 973.160394 0 910.418423L0 739.359354 0 739.359354ZM597.333333 739.359354 597.333333 739.359354 597.333333 910.418423C597.333333 941.736203 622.710187 967.111111 654.026012 967.111111L825.085099 967.111111C856.402859 967.111111 881.777778 941.734258 881.777778 910.418423L881.777778 739.359354C881.777778 708.041574 856.400924 682.666667 825.085099 682.666667L654.026012 682.666667C622.708252 682.666667 597.333333 708.04352 597.333333 739.359354L597.333333 739.359354ZM540.444444 739.359354C540.444444 676.629982 591.284053 625.777778 654.026012 625.777778L825.085099 625.777778C887.814457 625.777778 938.666667 676.617384 938.666667 739.359354L938.666667 910.418423C938.666667 973.147796 887.827058 1024 825.085099 1024L654.026012 1024C591.296654 1024 540.444444 973.160394 540.444444 910.418423L540.444444 739.359354 540.444444 739.359354ZM529.810432 327.436373 529.810432 327.436373 529.810432 327.436373 696.563627 494.189579C720.31141 517.937357 758.800811 517.936259 782.547484 494.189579L949.300679 327.436373C973.048462 303.688596 973.047381 265.199192 949.300679 241.452516L782.547484 74.69931C758.799701 50.951532 720.3103 50.95263 696.563627 74.69931L529.810432 241.452516C506.062649 265.200293 506.06373 303.689697 529.810432 327.436373L529.810432 327.436373ZM489.5839 367.662894C443.623623 321.702613 443.61674 247.193159 489.5839 201.225995L656.337095 34.472792C702.297401-11.487488 776.806855-11.494372 822.774016 34.472792L989.527211 201.225995C1035.487488 247.186276 1035.494372 321.69573 989.527211 367.662894L822.774016 534.416097C776.81371 580.376377 702.304256 580.38326 656.337095 534.416097L489.5839 367.662894 489.5839 367.662894Z" p-id="5272" fill="#FF4101"></path></svg>