<?xml version="1.0" standalone="no"?><!DOCTYPE svg PUBLIC "-//W3C//DTD SVG 1.1//EN" "http://www.w3.org/Graphics/SVG/1.1/DTD/svg11.dtd"><svg t="1522309834573" class="icon" style="" viewBox="0 0 1024 1024" version="1.1" xmlns="http://www.w3.org/2000/svg" p-id="3996" xmlns:xlink="http://www.w3.org/1999/xlink" width="200" height="200"><defs><style type="text/css"></style></defs><path d="M362.666667 895.914667V639.850667c0-36.266667 33.109333-63.850667 72.533333-63.850667h153.6c39.253333 0 72.533333 27.648 72.533333 63.850667v256.064h59.904c61.269333 0 110.762667-47.957333 110.762667-106.730667V414.165333L557.162667 139.328a63.808 63.808 0 0 0-90.325334 0L192 414.165333v375.018667c0 58.88 49.386667 106.730667 110.762667 106.730667H362.666667z m42.666666 0h213.333334V639.850667c0-10.709333-12.586667-21.184-29.866667-21.184h-153.6c-17.408 0-29.866667 10.389333-29.866667 21.184v256.064z m469.333334-439.082667v332.352c0 82.645333-68.885333 149.397333-153.429334 149.397333H302.762667C218.133333 938.581333 149.333333 871.936 149.333333 789.184V456.832l-27.584 27.584a21.333333 21.333333 0 1 1-30.165333-30.165333L436.672 109.162667a106.474667 106.474667 0 0 1 150.656 0l345.088 345.088a21.333333 21.333333 0 0 1-30.165333 30.165333L874.666667 456.832z" p-id="3997" fill="#FF4101"></path></svg>